<svg xmlns="http://www.w3.org/2000/svg" viewBox="0 0 358 154"><path d="M8.58 113.222v14.676H0V87.536h14.734c5.306 0 9.38 1.11 12.222 3.332 2.84 2.22 4.262 5.4 4.262 9.54 0 2.672-.632 4.949-1.89 6.83-1.263 1.882-3.06 3.33-5.392 4.346a732.804 732.804 0 0 1 5.024 8.045 464.776 464.776 0 0 1 4.968 8.27h-9.992a402.294 402.294 0 0 0-8.411-14.677H8.58zm0-6.83h5.646c2.671 0 4.704-.48 6.097-1.44 1.391-.961 2.088-2.475 2.088-4.544 0-2.07-.686-3.594-2.06-4.575-1.375-.978-3.397-1.467-6.069-1.467H8.581v12.025zm59.33 21.506c-.98-2.972-1.958-5.89-2.936-8.749h-16.37c-.98 2.897-1.958 5.815-2.936 8.75h-9.315a789.717 789.717 0 0 1 7.82-20.719 770.561 770.561 0 0 1 8.043-19.644h9.37a1091.87 1091.87 0 0 1 8.158 20.182 1129.513 1129.513 0 0 1 7.706 20.18h-9.54zm-16.823-15.975h11.347c-.903-2.635-1.835-5.258-2.794-7.874s-1.91-5.185-2.851-7.706a693.856 693.856 0 0 0-5.702 15.58zm31.274-24.387h15.412c4.251 0 7.893.79 10.923 2.37 3.028 1.582 5.334 3.868 6.915 6.86 1.58 2.991 2.37 6.614 2.37 10.866 0 4.254-.8 7.895-2.399 10.923-1.6 3.03-3.905 5.344-6.914 6.945-3.012 1.6-6.662 2.398-10.952 2.398H82.361V87.536zm14.904 32.912c3.762 0 6.65-1.102 8.665-3.304 2.012-2.2 3.02-5.37 3.02-9.512 0-4.1-.989-7.234-2.964-9.398-1.976-2.164-4.865-3.246-8.665-3.246h-6.267v25.46h6.21zm27.603-32.912h8.693v40.362h-8.693V87.536zm35.62-.847c3.048 0 5.805.49 8.27 1.469 2.465.978 4.572 2.38 6.323 4.205s3.095 4.027 4.036 6.604c.94 2.578 1.411 5.487 1.411 8.723 0 3.199-.471 6.096-1.41 8.693-.942 2.595-2.287 4.818-4.037 6.66-1.75 1.846-3.858 3.257-6.323 4.235-2.465.978-5.222 1.467-8.27 1.467s-5.805-.489-8.27-1.467c-2.465-.978-4.573-2.39-6.322-4.235-1.75-1.842-3.097-4.065-4.036-6.66-.942-2.597-1.411-5.494-1.411-8.693 0-3.236.469-6.145 1.41-8.723.94-2.577 2.287-4.779 4.037-6.604 1.75-1.825 3.857-3.227 6.322-4.205s5.222-1.47 8.27-1.47zm0 34.491c2.295 0 4.271-.536 5.928-1.608 1.655-1.073 2.916-2.606 3.782-4.6.865-1.996 1.298-4.423 1.298-7.282s-.433-5.288-1.298-7.282c-.867-1.996-2.127-3.52-3.782-4.575-1.657-1.053-3.633-1.58-5.928-1.58-2.296 0-4.271.527-5.927 1.58-1.656 1.055-2.917 2.579-3.782 4.575-.866 1.994-1.299 4.422-1.299 7.282s.433 5.286 1.299 7.282c.865 1.994 2.126 3.527 3.782 4.6 1.656 1.072 3.63 1.608 5.927 1.608zM0 25.597v51.167h51.167V25.597H0zm35.682 36.11c-.875 1.234-2.12 2.187-3.738 2.858-1.618.67-3.561 1.006-5.831 1.006H14.646V36.79h10.802c3.182 0 5.648.637 7.396 1.912 1.748 1.275 2.622 3.106 2.622 5.494 0 1.369-.313 2.556-.939 3.563-.626 1.006-1.553 1.805-2.779 2.395 1.696.563 2.994 1.456 3.894 2.677.9 1.221 1.35 2.704 1.35 4.448 0 1.717-.437 3.193-1.31 4.428zm-7.319-14.069c.796-.657 1.194-1.576 1.194-2.758 0-2.28-1.553-3.42-4.657-3.42h-4.422v7.164H24.9c1.513 0 2.667-.328 3.463-.986zm-2.72 5.494h-5.165v7.77h5.087c1.748 0 3.092-.329 4.031-.987.94-.657 1.409-1.603 1.409-2.838 0-2.63-1.788-3.945-5.362-3.945zm38.315-27.535v51.167h51.167V25.597H63.958zm35.682 36.11c-.875 1.234-2.12 2.187-3.738 2.858-1.618.67-3.561 1.006-5.83 1.006H78.604V36.79h10.8c3.184 0 5.65.637 7.397 1.912 1.748 1.275 2.622 3.106 2.622 5.494 0 1.369-.313 2.556-.939 3.563-.626 1.006-1.552 1.805-2.778 2.395 1.695.563 2.994 1.456 3.894 2.677.9 1.221 1.35 2.704 1.35 4.448 0 1.717-.437 3.193-1.311 4.428zm-7.32-14.069c.796-.657 1.194-1.576 1.194-2.758 0-2.28-1.553-3.42-4.657-3.42h-4.422v7.164h4.422c1.513 0 2.667-.328 3.463-.986zm-2.72 5.494h-5.165v7.77h5.087c1.748 0 3.092-.329 4.031-.987.94-.657 1.41-1.603 1.41-2.838 0-2.63-1.788-3.945-5.363-3.945zm38.315 23.632h51.167V25.597h-51.167v51.167zm36.748-13.017c-1.192.657-2.573 1.177-4.143 1.558a20.962 20.962 0 0 1-4.957.572c-2.302 0-4.374-.335-6.215-1.006-1.842-.67-3.4-1.637-4.672-2.9-1.273-1.262-2.248-2.807-2.925-4.636-.677-1.828-1.016-3.886-1.016-6.175 0-2.235.352-4.254 1.057-6.056.704-1.801 1.72-3.347 3.047-4.636 1.326-1.288 2.918-2.275 4.773-2.96 1.855-.683 3.934-1.025 6.236-1.025 1.598 0 3.108.165 4.53.493 1.421.33 2.742.81 3.96 1.44v5.603a13.275 13.275 0 0 0-3.615-1.677 14.512 14.512 0 0 0-4.103-.572c-1.977 0-3.664.369-5.058 1.105a7.566 7.566 0 0 0-3.21 3.196c-.745 1.394-1.116 3.09-1.116 5.09 0 1.999.358 3.702 1.076 5.109.717 1.407 1.76 2.48 3.128 3.216 1.368.736 3.027 1.104 4.977 1.104 2.979 0 5.728-.775 8.246-2.328v5.485zm186.155 45.049a1301.88 1301.88 0 0 0-4.544-13.55h-25.288c-1.516 4.49-3.031 9.005-4.546 13.551l-.099.295h-15.665l.209-.578a1252.705 1252.705 0 0 1 12.377-32.796 1227.928 1227.928 0 0 1 12.734-31.1l.112-.261h15.402l.11.265a1758.332 1758.332 0 0 1 15.99 39.839c.257-2.55.39-5.136.39-7.753C358 34.343 323.656 0 281.291 0c-42.364 0-76.707 34.343-76.707 76.708 0 42.364 34.343 76.707 76.707 76.707 30.828 0 57.403-18.188 69.594-44.416l-.067-.203zm-53.65 20.05h-22.033v-80.35a959.387 959.387 0 0 0-12.119 6.317 452.98 452.98 0 0 0-11.53 6.316V40.86c3.915-2.253 8.273-4.628 13.073-7.125a549.952 549.952 0 0 1 15.13-7.566h17.48v102.679zm36.458-68.895a1103.062 1103.062 0 0 0-8.41 22.997h16.742a627.243 627.243 0 0 0-4.223-11.882 2538.262 2538.262 0 0 0-4.11-11.115z" fill="#fff"/></svg>